<svg width="186" height="59" viewBox="0 0 186 59" fill="none" xmlns="http://www.w3.org/2000/svg">
<path d="M12.9014 30C8.83908 30 5.67326 28.8759 3.40395 26.6247C1.13465 24.3475 0 21.0981 0 16.875V0.41665H5.46314V16.6667C5.46314 22.3886 7.95657 25.2503 12.9434 25.2503C17.9023 25.2503 20.3817 22.3886 20.3817 16.6667V0.41665H25.7608V16.875C25.7608 21.0981 24.6261 24.3475 22.3568 26.6247C20.1156 28.8759 16.9637 30 12.9014 30ZM59.5508 0.41665V29.5833H55.0542L38.8329 9.83362V29.5833H33.4118V0.41665H37.9084L54.1297 20.1664V0.41665H59.5508ZM67.4333 0.41665H72.8964V29.5833H67.4333V0.41665ZM107.543 0.41665L94.726 29.5833H89.347L76.4876 0.41665H82.413L92.2046 22.9167L102.08 0.41665H107.543ZM132.71 25.042V29.5833H110.648V0.41665H132.122V4.95803H116.111V12.5419H130.315V17.0009H116.111V25.042H132.71ZM147.92 30C145.651 30 143.451 29.6803 141.322 29.0422C139.22 28.4028 137.554 27.5564 136.321 26.5003L138.212 22.2917C139.417 23.2364 140.888 24.0148 142.625 24.6253C144.39 25.2083 146.154 25.5006 147.92 25.5006C150.104 25.5006 151.73 25.1533 152.795 24.4589C153.887 23.7645 154.434 22.8472 154.434 21.7086C154.434 20.8753 154.126 20.1953 153.509 19.6672C152.921 19.1117 152.165 18.6805 151.24 18.3753C150.314 18.07 149.054 17.7228 147.457 17.3336C145.216 16.8055 143.395 16.2775 141.994 15.7509C140.621 15.2228 139.431 14.4025 138.422 13.2914C137.442 12.1528 136.951 10.625 136.951 8.70804C136.951 7.09779 137.386 5.63946 138.254 4.33304C139.15 3.00057 140.481 1.94444 142.247 1.16753C144.04 0.38917 146.224 0 148.803 0C150.595 0 152.36 0.222799 154.097 0.666954C155.835 1.11111 157.333 1.75058 158.594 2.58391L156.871 6.79253C155.582 6.04166 154.237 5.47308 152.836 5.0839C151.435 4.69472 150.077 4.50087 148.76 4.50087C146.602 4.50087 144.991 4.86111 143.928 5.58304C142.89 6.30642 142.372 7.26417 142.372 8.4592C142.372 9.29253 142.667 9.97251 143.255 10.5006C143.871 11.0286 144.641 11.4453 145.566 11.7506C146.491 12.0558 147.752 12.4031 149.349 12.7922C151.534 13.2914 153.326 13.8194 154.727 14.375C156.128 14.9031 157.319 15.7219 158.299 16.833C159.309 17.9442 159.812 19.4444 159.812 21.3339C159.812 22.9442 159.364 24.4025 158.468 25.7089C157.599 27.0139 156.268 28.0555 154.476 28.8339C152.683 29.6108 150.497 30 147.92 30ZM170.787 4.99999H161.036V0.41665H186V4.99999H176.25V29.5833H170.787V4.99999Z" fill="#C62828"/>
<path d="M9.85547 55H11.957L9.23828 50.8047L11.9727 46.7344H9.92578L8.19922 49.6016H8.12109L6.44922 46.7344H4.29297L6.99609 50.8984L4.36328 55H6.34766L8.06641 52.1172H8.14453L9.85547 55ZM15.5352 45.5566C15.5352 45.5371 15.5254 45.4688 15.5254 45.4395C15.5254 44.3164 16.3262 43.3301 17.6836 43.3301C18.8945 43.3301 19.8027 44.1309 19.8027 45.3223C19.8027 46.4648 19.0117 47.334 18.2988 48.125L13.416 53.5254V55H22.4004V53.0469H16.6484V52.9883L19.8418 49.3457C21.0137 48.0078 22.1562 46.8945 22.1562 45.1172C22.1562 42.998 20.4082 41.4062 17.7324 41.4062C14.7441 41.4062 13.2793 43.418 13.2793 45.4492V45.5566H15.5352ZM27.6523 55H29.4961V43.7734H27.6523V55ZM34.0977 57.0859C34.0977 57.625 34.5195 58.0312 35.0352 58.0312C35.5977 58.0312 36.0195 57.625 36.0195 57.0859C36.0195 56.5312 35.5977 56.1172 35.0352 56.1172C34.5195 56.1172 34.0977 56.5312 34.0977 57.0859ZM35.0352 55.1406C37.2305 55.1406 38.7461 53.7734 38.7461 51.3594V50.3359C38.7461 49.4453 38.3867 48.625 38.0508 48.1328V48.0625C39.1523 47.9375 39.5977 47.0938 39.5977 45.9219V44.6016H38.082V45.8281C38.082 46.5078 37.8945 46.8906 37.1523 46.8906C36.3242 46.8906 35.9805 46.5938 35.0352 46.5938C32.832 46.5938 31.3164 48.0781 31.3164 50.3438V51.3594C31.3164 53.7891 32.8086 55.1406 35.0352 55.1406ZM35.0352 48.0469C36.2383 48.0469 36.8789 49.0703 36.8789 50.4062V51.3125C36.8789 52.6484 36.2695 53.6719 35.0352 53.6719C33.7852 53.6719 33.168 52.6484 33.168 51.3125V50.4062C33.168 49.0781 33.832 48.0469 35.0352 48.0469ZM40.8242 55H42.668V46.7344H40.8242V55ZM40.6367 44.6875C40.6367 45.2578 41.0898 45.6719 41.7305 45.6719C42.4102 45.6719 42.8477 45.2578 42.8477 44.6875C42.8477 44.1172 42.4023 43.7031 41.7305 43.7031C41.0898 43.7031 40.6367 44.1172 40.6367 44.6875ZM48.1523 55H49.9961V50.1719C49.9961 48.8672 50.668 48.1953 51.7461 48.1953C52.8008 48.1953 53.457 48.7656 53.457 50.1172V55H55.3086V49.5391C55.3086 47.6172 54.0586 46.6016 52.418 46.6016C51.1289 46.6016 50.3164 47.2656 50.0352 47.8984H49.9648V46.7344H48.1523V55ZM57.4492 55H59.293V50.2109C59.293 48.8984 59.9961 48.1953 61.0742 48.1953C62.1367 48.1953 62.7852 48.9297 62.7852 50.2031V55H64.6367V49.7891C64.6367 47.8516 63.4648 46.6016 61.668 46.6016C60.3086 46.6016 59.5977 47.3438 59.3711 47.8984H59.293V43.7734H57.4492V55ZM73.8086 46.7344H71.9648V51.6953C71.9648 52.8984 71.2227 53.5469 70.2227 53.5469C69.332 53.5469 68.5273 53.1328 68.5273 51.7188V46.7344H66.6758V52.2188C66.6758 54.1484 67.8398 55.125 69.5352 55.125C70.8867 55.125 71.6523 54.4766 71.9258 53.8281H72.0039V55H73.8086V46.7344ZM80.5352 53.9375H80.6133V55H82.3555V49.3516C82.3555 47.3828 81.0352 46.6016 79.1211 46.6016C76.8086 46.6016 75.9023 47.7891 75.832 49.2109H77.5898C77.6602 48.5156 78.1055 48.0625 79.0586 48.0625C79.9883 48.0625 80.5195 48.4453 80.5195 49.3125V50.1875H78.457C76.5508 50.1875 75.5273 51.1484 75.5273 52.625C75.5273 54.1719 76.6367 55.125 78.2383 55.125C79.457 55.125 80.1836 54.5625 80.5352 53.9375ZM78.8164 53.7344C78.0742 53.7344 77.3711 53.3516 77.3711 52.5156C77.3711 51.8516 77.832 51.3828 78.8008 51.3828H80.5195V52.2266C80.5195 53.0938 79.7773 53.7344 78.8164 53.7344ZM76.7539 45.4609H78.1758L79.0742 44.0469H79.1289L79.9492 45.4688H81.3945L79.7461 43.1016H78.4805L76.7539 45.4609ZM78.1992 57.0859C78.1992 57.625 78.6211 58.0312 79.1367 58.0312C79.6992 58.0312 80.1211 57.625 80.1211 57.0859C80.1211 56.5312 79.6992 56.1172 79.1367 56.1172C78.6211 56.1172 78.1992 56.5312 78.1992 57.0859ZM84.4492 55H86.293V50.1719C86.293 48.8672 86.9648 48.1953 88.043 48.1953C89.0977 48.1953 89.7539 48.7656 89.7539 50.1172V55H91.6055V49.5391C91.6055 47.6172 90.3555 46.6016 88.7148 46.6016C87.4258 46.6016 86.6133 47.2656 86.332 47.8984H86.2617V46.7344H84.4492V55ZM97.4023 46.7969H96.2148V48.2422H97.3711V52.6719C97.3711 54.3359 97.9648 55.0547 99.9961 55.0547C100.371 55.0547 100.707 55.0156 100.855 54.9922V53.5938C100.754 53.6094 100.605 53.6094 100.449 53.6094C99.543 53.6094 99.1992 53.3594 99.1992 52.4844V48.2422H100.809V46.7969H99.1992V44.7344H97.4023V46.7969ZM107.059 45.4531L105.473 43.2422H103.598L105.535 45.4531H107.059ZM107.652 53.625H107.746V55H109.559V48.0312H109.738C111.121 48.0312 111.762 47.0547 111.762 45.8203V44.6016H110.246V45.6641C110.246 46.3125 110.09 46.7344 109.363 46.7344H107.715V51.7969C107.715 52.8281 106.895 53.5859 105.863 53.5859C105.035 53.5859 104.277 53.2109 104.277 51.9141V46.7344H102.426V52.375C102.426 54.3203 103.566 55.125 105.215 55.125C106.668 55.125 107.426 54.2891 107.652 53.625ZM118.629 46.6172C116.582 46.6172 115.465 48.1328 115.465 50.3906V51.3281C115.465 53.6172 116.598 55.1094 118.629 55.1094C119.941 55.1094 120.824 54.4688 121.043 53.7344H121.113V55H122.918V43.7734H121.074V47.9219H121.004C120.73 47.1875 119.902 46.6172 118.629 46.6172ZM119.184 48.1172C120.363 48.1172 121.074 49.0391 121.074 50.5391V51.1562C121.074 52.7344 120.363 53.6172 119.215 53.6172C117.973 53.6172 117.348 52.6406 117.348 51.1406V50.5859C117.348 49.1094 117.957 48.1172 119.184 48.1172ZM129.457 45.4531L127.871 43.2422H125.996L127.934 45.4531H129.457ZM128.426 46.5938C125.941 46.5938 124.707 48.2891 124.707 50.5625V51.1484C124.707 53.5781 125.941 55.1406 128.426 55.1406C130.91 55.1406 132.137 53.5625 132.137 51.1484V50.5547C132.137 48.2188 130.91 46.5938 128.426 46.5938ZM128.426 48.0469C129.855 48.0469 130.27 49.2812 130.27 50.625V51.1016C130.27 52.4375 129.863 53.6719 128.426 53.6719C126.98 53.6719 126.559 52.4297 126.559 51.1016V50.625C126.559 49.2891 126.988 48.0469 128.426 48.0469ZM133.887 55H135.73V50.1719C135.73 48.8672 136.402 48.1953 137.48 48.1953C138.535 48.1953 139.191 48.7656 139.191 50.1172V55H141.043V49.5391C141.043 47.6172 139.793 46.6016 138.152 46.6016C136.863 46.6016 136.051 47.2656 135.77 47.8984H135.699V46.7344H133.887V55ZM146.371 56.6562C145.332 56.6562 144.793 56.1797 144.699 55.6016H142.887C142.934 56.8672 143.965 58.0781 146.316 58.0781C148.395 58.0781 150.137 57.1875 150.137 54.8594V46.7344H148.34V47.9219H148.27C147.949 47.2344 147.238 46.6172 145.902 46.6172C144.035 46.6172 142.707 48.0312 142.707 50.3203V51.2266C142.707 53.5469 144.059 54.8984 145.887 54.8984C147.051 54.8984 147.918 54.3281 148.23 53.6094H148.301V54.7891C148.301 55.9766 147.668 56.6562 146.371 56.6562ZM146.488 48.1172C147.613 48.1172 148.293 49.1172 148.293 50.4766V51.2344C148.293 52.5 147.645 53.4766 146.496 53.4766C145.379 53.4766 144.582 52.6484 144.582 51.1719V50.4844C144.582 49.0156 145.324 48.1172 146.488 48.1172ZM155.871 46.7969H154.684V48.2422H155.84V52.6719C155.84 54.3359 156.434 55.0547 158.465 55.0547C158.84 55.0547 159.176 55.0156 159.324 54.9922V53.5938C159.223 53.6094 159.074 53.6094 158.918 53.6094C158.012 53.6094 157.668 53.3594 157.668 52.4844V48.2422H159.277V46.7969H157.668V44.7344H155.871V46.7969ZM161.121 55H162.965V46.7344H161.121V55ZM160.934 44.6875C160.934 45.2578 161.387 45.6719 162.027 45.6719C162.707 45.6719 163.145 45.2578 163.145 44.6875C163.145 44.1172 162.699 43.7031 162.027 43.7031C161.387 43.7031 160.934 44.1172 160.934 44.6875ZM172.254 44.3125L170.559 42.4844H169.035L171.066 44.3125H172.254ZM171.168 45.5938L169.035 43.7188H167.863L165.77 45.5938H167.285L168.418 44.5469H168.496L169.652 45.5938H171.168ZM168.59 55.1406C170.926 55.1406 171.84 53.6875 171.973 52.5781H170.191C170.082 53.1562 169.59 53.6797 168.582 53.6797C167.324 53.6797 166.715 52.6797 166.715 51.5312V51.2734H172.059V50.5312C172.059 48.1875 170.809 46.5938 168.48 46.5938C166.223 46.5938 164.895 48.1406 164.895 50.5391V51.2344C164.895 53.6328 166.207 55.1406 168.59 55.1406ZM166.715 50.0312V50.0156C166.715 48.8594 167.387 48.0156 168.496 48.0156C169.598 48.0156 170.262 48.8516 170.262 50.0156V50.0312H166.715ZM173.793 55H175.637V50.1719C175.637 48.8672 176.309 48.1953 177.387 48.1953C178.441 48.1953 179.098 48.7656 179.098 50.1172V55H180.949V49.5391C180.949 47.6172 179.699 46.6016 178.059 46.6016C176.77 46.6016 175.957 47.2656 175.676 47.8984H175.605V46.7344H173.793V55Z" fill="#C62828"/>
</svg>
